<svg width="88" height="88" viewBox="0 0 88 88" fill="none" xmlns="http://www.w3.org/2000/svg">
  <rect width="88" height="88" rx="20" fill="#4F46E5"/>
  <rect x="14" y="12" width="60" height="36" rx="10" fill="white" opacity="0.15"/>
  <path d="M14 12 Q44 0 74 12" stroke="white" stroke-width="3" fill="none" stroke-linecap="round" opacity="0.95"/>
  <path d="M10 50c0-7 6-13 13-13h16c7 0 13 6 13 13v6c0 7-6 13-13 13H29l-9 8v-8c-6-2-10-7-10-13v-6z" fill="white" opacity="0.95"/>
  <path d="M36 56c0-7 6-13 13-13h16c7 0 13 6 13 13v6c0 7-6 13-13 13H58l-9 8v-8c-6-2-10-7-10-13v-6z" fill="#F59E0B"/>
</svg>
