<svg width="88" height="88" viewBox="0 0 88 88" fill="none" xmlns="http://www.w3.org/2000/svg">
  <rect width="88" height="88" rx="20" fill="#4F46E5"/>
  <rect x="16" y="16" width="56" height="38" rx="10" fill="white" opacity="0.15"/>
  <path d="M16 16 Q44 4 72 16" stroke="white" stroke-width="3" fill="none" stroke-linecap="round" opacity="0.95"/>
  <path d="M18 58c0-5 4-9 9-9h12c5 0 9 4 9 9v4c0 5-4 9-9 9H32l-7 6v-6c-4-1.5-7-5-7-9v-4z" fill="white" opacity="0.95"/>
  <path d="M40 62c0-5 4-9 9-9h12c5 0 9 4 9 9v4c0 5-4 9-9 9H54l-7 6v-6c-4-1.5-7-5-7-9v-4z" fill="#F59E0B"/>
</svg>
