<svg width="88" height="88" viewBox="0 0 88 88" fill="none" xmlns="http://www.w3.org/2000/svg">
  <rect width="88" height="88" rx="20" fill="#4F46E5"/>
  <rect x="14" y="10" width="60" height="32" rx="10" fill="white" opacity="0.15"/>
  <path d="M14 10 Q44 -2 74 10" stroke="white" stroke-width="3" fill="none" stroke-linecap="round" opacity="0.95"/>
  <path d="M2 48c0-11 9-20 20-20h18c11 0 20 9 20 20v4c0 11-9 20-20 20H28l-12 10v-10C7 69 2 61 2 52v-4z" fill="white" opacity="0.95"/>
  <path d="M34 54c0-11 9-20 20-20h12c11 0 20 9 20 20v4c0 11-9 20-20 20H62l-10 10v-10c-9-3-18-12-18-20v-4z" fill="#F59E0B"/>
</svg>
